<svg width="500" height="500" viewBox="0 0 500 500" xmlns="http://www.w3.org/2000/svg">
  <style>
    @media (prefers-color-scheme: dark) {
      .a {
        fill: #ffffff;
      }
    }
  </style>
  <path class="a" fill-rule="evenodd" clip-rule="evenodd" d="M356.267 43.2458C296.094 7.00372 221.43 6.38771 160.686 41.6321C102.112 75.6178 65.1668 137.909 62.6386 206.095L62.5 213.694C64.3303 265.932 81.9222 316.331 112.887 358.047C149.891 408.021 195.461 450.79 247.405 484.296C250.701 486.293 254.434 487.425 258.268 487.588C262.251 486.969 266.089 485.614 269.593 483.591C303.616 461.292 334.955 435.016 362.97 405.302C392.978 373.616 419.275 336.178 435.309 295.545C432.935 293.333 430.504 290.895 427.934 288.317C421.799 282.164 414.871 275.215 406.042 268.644C377.257 247.239 363.446 242.203 322.365 242.203C281.284 242.203 267.474 247.239 238.688 268.644C229.866 275.215 222.941 282.161 216.81 288.311C203.233 301.927 193.545 311.645 175.759 304.761C155.011 296.728 163.719 229.818 171.74 184.999C185.806 106.487 217.271 83.3282 234 83.3282C244.703 83.3282 252.143 86.5885 261.027 90.4808C273.811 96.0825 289.583 102.993 322.365 103.379C355.148 102.993 370.919 96.0825 383.704 90.4808C390.405 87.5445 396.286 84.9678 403.365 83.8793C390.024 68.1417 374.204 54.3787 356.267 43.2458ZM236.022 185.848C242.003 191.826 250.116 195.184 258.575 195.184C267.034 195.184 275.147 191.826 281.128 185.848C287.11 179.87 290.47 171.762 290.47 163.307C290.47 154.853 287.11 146.745 281.128 140.767C275.147 134.789 267.034 131.43 258.575 131.43C250.116 131.43 242.003 134.789 236.022 140.767C230.04 146.745 226.68 154.853 226.68 163.307C226.68 171.762 230.04 179.87 236.022 185.848ZM358.931 190.516C361.922 193.505 365.978 195.184 370.208 195.184C374.438 195.184 378.494 193.505 381.485 190.516C384.475 187.527 386.156 183.473 386.156 179.246C386.156 175.019 384.475 170.965 381.485 167.976C378.494 164.986 374.438 163.307 370.208 163.307C365.978 163.307 361.922 164.986 358.931 167.976C355.941 170.965 354.26 175.019 354.26 179.246C354.26 183.473 355.941 187.527 358.931 190.516ZM390.826 158.639C393.817 161.628 397.874 163.307 402.103 163.307C406.333 163.307 410.389 161.628 413.38 158.639C416.371 155.65 418.051 151.596 418.051 147.369C418.051 143.142 416.371 139.088 413.38 136.099C410.389 133.11 406.333 131.43 402.103 131.43C397.874 131.43 393.817 133.11 390.826 136.099C387.836 139.088 386.156 143.142 386.156 147.369C386.156 151.596 387.836 155.65 390.826 158.639Z" fill="#1d1d1d"/>
</svg>