<?xml version="1.0" encoding="UTF-8" standalone="no" ?>
<!DOCTYPE svg PUBLIC "-//W3C//DTD SVG 1.1//EN" "http://www.w3.org/Graphics/SVG/1.1/DTD/svg11.dtd">
<svg xmlns="http://www.w3.org/2000/svg" xmlns:xlink="http://www.w3.org/1999/xlink" version="1.1" width="1080" height="1080" viewBox="0 0 1080 1080" xml:space="preserve">
<desc>Created with Fabric.js 5.2.4</desc>
<defs>
</defs>
<rect x="0" y="0" width="100%" height="100%" fill="transparent"></rect>
<g transform="matrix(1 0 0 1 540 540)" id="0f835d45-640a-4fab-ac20-3cc6e1184d08"  >
<rect style="stroke: none; stroke-width: 1; stroke-dasharray: none; stroke-linecap: butt; stroke-dashoffset: 0; stroke-linejoin: miter; stroke-miterlimit: 4; fill: rgb(255,255,255); fill-rule: nonzero; opacity: 1; visibility: hidden;" vector-effect="non-scaling-stroke"  x="-540" y="-540" rx="0" ry="0" width="1080" height="1080" />
</g>
<g transform="matrix(Infinity NaN NaN Infinity 0 0)" id="8bebc089-2845-4de0-88c2-e34f12a598d8"  >
</g>
<g transform="matrix(0.78 0 0 0.78 789.66 783.48)" id="7f5d517e-4c85-48f2-ae8d-384a07f649ed"  >
<path style="stroke: rgb(0,0,0); stroke-width: 0; stroke-dasharray: none; stroke-linecap: butt; stroke-dashoffset: 0; stroke-linejoin: miter; stroke-miterlimit: 4; fill: rgb(0,0,0); fill-rule: nonzero; opacity: 1;" vector-effect="non-scaling-stroke"  transform=" translate(-480, 480)" d="M 480 -120 Q 330 -120 225 -225 Q 120 -330 120 -480 Q 120 -630 225 -735 Q 330 -840 480 -840 Q 494 -840 507.5 -839 Q 521 -838 534 -836 Q 493 -807 468.5 -760.5 Q 444 -714 444 -660 Q 444 -570 507 -507 Q 570 -444 660 -444 Q 715 -444 761 -468.5 Q 807 -493 836 -534 Q 838 -521 839 -507.5 Q 840 -494 840 -480 Q 840 -330 735 -225 Q 630 -120 480 -120 Z M 480 -200 Q 568 -200 638 -248.5 Q 708 -297 740 -375 Q 720 -370 700 -367 Q 680 -364 660 -364 Q 537 -364 450.5 -450.5 Q 364 -537 364 -660 Q 364 -680 367 -700 Q 370 -720 375 -740 Q 297 -708 248.5 -638 Q 200 -568 200 -480 Q 200 -364 282 -282 Q 364 -200 480 -200 Z M 470 -470 Z" stroke-linecap="round" />
</g>
<g transform="matrix(0.68 0 0 0.68 307.19 312.68)" id="53b21735-6d28-4a1c-8747-bdc13d0c5267"  >
<path style="stroke: rgb(0,0,0); stroke-width: 0; stroke-dasharray: none; stroke-linecap: butt; stroke-dashoffset: 0; stroke-linejoin: miter; stroke-miterlimit: 4; fill: rgb(0,0,0); fill-rule: nonzero; opacity: 1;" vector-effect="non-scaling-stroke"  transform=" translate(-480, 480)" d="M 480 -360 Q 530 -360 565 -395 Q 600 -430 600 -480 Q 600 -530 565 -565 Q 530 -600 480 -600 Q 430 -600 395 -565 Q 360 -530 360 -480 Q 360 -430 395 -395 Q 430 -360 480 -360 Z M 480 -280 Q 397 -280 338.5 -338.5 Q 280 -397 280 -480 Q 280 -563 338.5 -621.5 Q 397 -680 480 -680 Q 563 -680 621.5 -621.5 Q 680 -563 680 -480 Q 680 -397 621.5 -338.5 Q 563 -280 480 -280 Z M 200 -440 L 40 -440 L 40 -520 L 200 -520 L 200 -440 Z M 920 -440 L 760 -440 L 760 -520 L 920 -520 L 920 -440 Z M 440 -760 L 440 -920 L 520 -920 L 520 -760 L 440 -760 Z M 440 -40 L 440 -200 L 520 -200 L 520 -40 L 440 -40 Z M 256 -650 L 155 -747 L 212 -806 L 308 -706 L 256 -650 Z M 748 -154 L 651 -255 L 704 -310 L 805 -213 L 748 -154 Z M 650 -704 L 747 -805 L 806 -748 L 706 -652 L 650 -704 Z M 154 -212 L 255 -309 L 310 -256 L 213 -155 L 154 -212 Z M 480 -480 Z" stroke-linecap="round" />
</g>
<g transform="matrix(22.14 -22.14 1.67 1.67 415.1 668.63)" id="bca2de59-06d8-451d-ac36-b344c3671a4e"  >
<path style="stroke: rgb(0,0,0); stroke-width: 0; stroke-dasharray: none; stroke-linecap: butt; stroke-dashoffset: 0; stroke-linejoin: miter; stroke-miterlimit: 4; fill: rgb(0,0,0); fill-rule: nonzero; opacity: 1;" vector-effect="non-scaling-stroke"  transform=" translate(-50, -50)" d="M 94.75 50 C 94.75 56.213 89.514 61.25 83.054 61.25 L 16.946 61.25 C 10.486 61.25 5.25 56.213 5.25 50 L 5.25 50 C 5.25 43.787 10.486 38.75 16.945999999999998 38.75 L 83.053 38.75 C 89.514 38.75 94.75 43.787 94.75 50 L 94.75 50 z" stroke-linecap="round" />
</g>
</svg>